<svg id="logo" width="142px" height="142px" viewBox="0 0 142 142">
  <g id="Page-1" stroke="none" stroke-width="1" fill="none" fill-rule="evenodd" sketch:type="MSPage">
    <g id="Group" sketch:type="MSLayerGroup">
      <circle id="Oval-1" stroke="#323331" stroke-width="4" sketch:type="MSShapeGroup" cx="71" cy="71" r="71"></circle>
      <path d="M53.9705,85.9608 L53.9705,102.6268 C53.0235,103.0568 51.0115,103.4568 48.7555,103.4568 C44.9665,103.4568 43.0915,101.6988 43.0915,98.0568 L43.0915,84.0268 L41.1675,84.0268 C40.1225,84.0268 39.2435,84.9018 39.2435,85.9608 L39.2435,98.0178 C39.2435,103.9648 42.6425,106.6598 48.7555,106.6598 C52.3885,106.6598 55.9135,105.8688 57.7795,104.9218 L57.7795,84.0268 L55.9135,84.0268 C54.8395,84.0268 53.9705,84.9018 53.9705,85.9608" id="Fill-4" fill="#313330" sketch:type="MSShapeGroup"></path>
      <path d="M100.1137,85.9608 L100.1137,102.6268 C99.1567,103.0568 97.1347,103.4568 94.9087,103.4568 C91.1097,103.4568 89.2247,101.6988 89.2247,98.0568 L89.2247,84.0268 L87.3007,84.0268 C86.2457,84.0268 85.3767,84.9018 85.3767,85.9608 L85.3767,98.0178 C85.3767,103.9648 88.7657,106.6598 94.9087,106.6598 C98.5217,106.6598 102.0567,105.8688 103.9317,104.9218 L103.9317,84.0268 L102.0567,84.0268 C100.9727,84.0268 100.1137,84.9018 100.1137,85.9608" id="Fill-6" fill="#313330" sketch:type="MSShapeGroup"></path>
      <path d="M71.52,84.0272 C67.907,84.0272 64.381,84.8082 62.506,85.7812 L62.506,106.6602 L64.381,106.6602 C65.426,106.6602 66.295,105.8002 66.295,104.7462 L66.295,88.0762 C67.272,87.6662 69.274,87.2462 71.52,87.2462 C75.309,87.2462 77.204,88.9942 77.204,92.6462 L77.204,106.6602 L79.118,106.6602 C80.173,106.6602 81.021,105.8002 81.021,104.7462 L81.021,92.7052 C81.021,86.7482 77.653,84.0272 71.52,84.0272" id="Fill-8" fill="#313330" sketch:type="MSShapeGroup"></path>
    </g>
  </g>
</svg>